HIERARCHY
ROOT Hips
{
	OFFSET 0.000000 0.000000 0.000000 
	CHANNELS 6 Xposition Yposition Zposition Zrotation Yrotation Xrotation
	JOINT LeftUpLeg
	{
		OFFSET 1.363060 -1.794630 0.839290 
		CHANNELS 3 Zrotation Yrotation Xrotation
		JOINT LeftLeg
		{
			OFFSET 2.448110 -6.726130 0.000000 
			CHANNELS 3 Zrotation Yrotation Xrotation
			JOINT LeftFoot
			{
				OFFSET 2.562200 -7.039590 0.000000 
				CHANNELS 3 Zrotation Yrotation Xrotation
				JOINT LeftToeBase
				{
					OFFSET 0.157640 -0.433110 2.322550 
					CHANNELS 3 Zrotation Yrotation Xrotation
					End Site
					{
						OFFSET 0.000000 0.000000 0.000000 
					}
				}
			}
		}
	}
	JOINT RightUpLeg
	{
		OFFSET -1.305520 -1.794630 0.839290 
		CHANNELS 3 Zrotation Yrotation Xrotation
		JOINT RightLeg
		{
			OFFSET -2.542530 -6.985550 0.000000 
			CHANNELS 3 Zrotation Yrotation Xrotation
			JOINT RightFoot
			{
				OFFSET -2.568260 -7.056230 0.000000 
				CHANNELS 3 Zrotation Yrotation Xrotation
				JOINT RightToeBase
				{
					OFFSET -0.164730 -0.452590 2.363150 
					CHANNELS 3 Zrotation Yrotation Xrotation
					End Site
					{
						OFFSET 0.000000 0.000000 0.000000 
					}
				}
			}
		}
	}
	JOINT Spine
	{
		OFFSET 0.028270 2.035590 -0.193380 
		CHANNELS 3 Zrotation Yrotation Xrotation
		JOINT Spine1
		{
			OFFSET 0.056720 2.048850 -0.042750 
			CHANNELS 3 Zrotation Yrotation Xrotation
			JOINT Neck1
			{
				OFFSET -0.054170 1.746240 0.172020 
				CHANNELS 3 Zrotation Yrotation Xrotation
				JOINT Head
				{
					OFFSET 0.104070 1.761360 -0.123970 
					CHANNELS 3 Zrotation Yrotation Xrotation
					End Site
					{
						OFFSET 0.000000 0.000000 0.000000 
					}
				}
			}
			JOINT LeftArm
			{
				OFFSET 3.362410 1.200890 -0.311210 
				CHANNELS 3 Zrotation Yrotation Xrotation
				JOINT LeftForeArm
				{
					OFFSET 4.983000 -0.000000 -0.000000 
					CHANNELS 3 Zrotation Yrotation Xrotation
					JOINT LeftHand
					{
						OFFSET 3.483560 -0.000000 -0.000000 
						CHANNELS 3 Zrotation Yrotation Xrotation
						JOINT LeftHandIndex1
						{
							OFFSET 0.715260 -0.000000 -0.000000 
							CHANNELS 3 Zrotation Yrotation Xrotation
							End Site
							{
								OFFSET 0.000000 0.000000 0.000000 
							}
						}
					}
				}
			}
			JOINT RightArm
			{
				OFFSET -3.136600 1.374050 -0.404650 
				CHANNELS 3 Zrotation Yrotation Xrotation
				JOINT RightForeArm
				{
					OFFSET -5.241900 -0.000000 -0.000000 
					CHANNELS 3 Zrotation Yrotation Xrotation
					JOINT RightHand
					{
						OFFSET -3.444170 -0.000000 -0.000000 
						CHANNELS 3 Zrotation Yrotation Xrotation
						JOINT RightHandIndex1
						{
							OFFSET -0.622530 -0.000000 -0.000000 
							CHANNELS 3 Zrotation Yrotation Xrotation
							End Site
							{
								OFFSET 0.000000 0.000000 0.000000 
							}
						}
					}
				}
			}
		}
	}
}
MOTION
Frames: 15
Frame Time: 0.041667
7.356863 10.095836 13.432687 -2.158943 -0.480269 -28.043708 -8.212166 0.615708 -36.991017 3.691719 13.528615 36.863007 38.669055 -5.259068 -169.836656 3.206800 11.022500 32.355700 4.009854 9.288438 -75.429338 -11.202441 -17.848141 62.599357 -39.774204 0.343360 171.222718 -0.141800 2.426900 -6.687000 1.438901 -0.828385 1.218881 -2.471791 0.312949 -1.137493 3.175306 -1.310475 8.458187 0.712900 -0.434000 2.953100 42.616252 -51.846091 -30.493670 19.931990 -31.450331 -5.329790 0.372008 -0.531592 2.181097 -7.125000 0.000000 0.000000 -9.624294 39.419532 0.799828 -35.738764 43.155390 -15.885656 0.822892 1.154588 3.901529 7.125000 0.000000 0.000000 
7.365955 10.135563 13.526173 -1.392747 -0.890848 -28.542669 -7.976128 0.835197 -38.164572 3.754492 13.471945 37.015174 39.003602 -3.346604 -171.128647 2.849500 10.447400 30.437900 4.251309 9.045323 -74.495001 -10.341963 -17.406742 59.802130 -39.793735 0.370251 171.638876 -0.097100 2.009500 -5.531800 1.334694 -0.750658 1.315373 -2.451744 0.342828 -1.033920 3.053398 -1.201035 8.677319 0.680500 -0.380300 2.991700 41.270266 -51.314338 -29.891223 18.719832 -29.897141 -4.736299 0.341928 -0.499023 2.442400 -7.125000 0.000000 0.000000 -8.994785 38.846991 0.899982 -34.525552 42.232806 -15.001327 0.850683 1.201752 2.524279 7.125000 0.000000 0.000000 
7.375047 10.163332 13.614125 -0.721068 -1.368647 -28.944116 -7.647353 1.085738 -39.700836 3.871986 13.460454 37.378220 39.357710 -1.581437 -173.215084 2.534200 9.899900 28.653200 4.628210 8.877505 -73.609219 -9.557601 -16.961562 57.189214 -39.817153 0.405338 172.150394 -0.066200 1.660300 -4.567800 1.245953 -0.655154 1.386034 -2.480400 0.380989 -0.974825 2.896922 -1.099374 8.908145 0.631200 -0.330800 3.037700 39.814719 -50.712927 -29.288791 17.708841 -28.537036 -4.260922 0.320966 -0.465323 2.533808 -7.125000 0.000000 0.000000 -8.327875 38.222879 0.888100 -33.348798 41.289909 -14.159419 0.890621 1.244794 1.648494 7.125000 0.000000 0.000000 
7.384534 10.180132 13.697137 -0.144149 -1.945076 -29.273963 -7.186882 1.395755 -41.516032 4.082634 13.530379 38.064891 39.640334 -0.158737 -175.465518 2.322900 9.508500 27.399200 5.164269 8.798193 -72.728185 -8.851445 -16.527257 54.779304 -39.844957 0.464634 172.762241 -0.037900 1.256100 -3.453800 1.167024 -0.535248 1.433487 -2.577614 0.432532 -0.966626 2.706853 -1.010935 9.113913 0.561900 -0.288600 3.072700 38.256068 -50.045620 -28.680120 16.881664 -27.368307 -3.884421 0.308030 -0.430117 2.440656 -7.125000 0.000000 0.000000 -7.607916 37.571856 0.755537 -32.183695 40.309148 -13.342847 0.944044 1.284168 1.273053 7.125000 0.000000 0.000000 
7.395305 10.187247 13.778171 0.441914 -2.554492 -29.595171 -6.700210 1.729596 -43.469684 4.411866 13.711157 39.166863 39.835499 0.963368 -177.346425 2.208800 9.288000 26.700500 5.711335 8.735647 -71.793187 -8.218767 -16.107686 52.567215 -39.877670 0.573951 173.470944 -0.013100 0.737600 -2.027100 1.073461 -0.413594 1.476555 -2.717100 0.485585 -0.987579 2.502346 -0.929107 9.257254 0.481800 -0.250600 3.083200 36.633007 -49.273033 -28.016112 16.206644 -26.367932 -3.584305 0.300897 -0.393513 2.092328 -7.125000 0.000000 0.000000 -6.862289 36.916902 0.483023 -31.018530 39.286200 -12.546042 1.008936 1.321489 1.312526 7.125000 0.000000 0.000000 
7.406077 10.185073 13.856044 0.961955 -3.233097 -29.884443 -6.078318 2.096162 -45.543792 4.855794 13.972338 40.629774 39.971585 1.928331 -178.559392 2.263600 9.394800 27.038400 6.383135 8.713438 -70.818710 -7.651917 -15.712700 50.547863 -39.917433 0.817559 174.204676 -0.000400 0.125700 -0.345400 0.982512 -0.291510 1.521426 -2.909565 0.541443 -1.017028 2.316686 -0.846051 9.322718 0.406900 -0.212200 3.071900 35.010761 -48.372575 -27.360235 15.642902 -25.497354 -3.338880 0.296754 -0.356095 1.522215 -7.125000 0.000000 0.000000 -6.136408 36.267122 0.039629 -29.860164 38.232898 -11.776904 1.081377 1.358954 1.627021 7.125000 0.000000 0.000000 
7.416849 10.174203 13.931940 1.462279 -3.909014 -30.149451 -5.426751 2.460929 -47.693624 5.406394 14.296932 42.419415 40.105021 3.027425 -179.164664 2.236900 9.343000 26.874300 7.090293 8.664770 -69.813918 -7.142089 -15.340900 48.703880 -39.964164 1.235774 174.865708 -0.005500 -0.479400 1.317300 0.887623 -0.188798 1.577892 -3.125343 0.589469 -1.027502 2.179872 -0.753434 9.331044 0.352800 -0.168600 3.051800 33.450047 -47.357267 -26.784857 15.141782 -24.701937 -3.125624 0.293026 -0.318241 0.813431 -7.125000 0.000000 0.000000 -5.463014 35.618658 -0.576338 -28.714915 37.159422 -11.040797 1.155985 1.398193 2.049583 7.125000 0.000000 0.000000 
7.427126 10.154240 14.006155 1.993066 -4.521783 -30.393227 -4.850600 2.796567 -49.883527 6.049037 14.671565 44.494035 40.253695 4.305984 -179.367505 2.097000 9.065200 25.999500 7.739504 8.550718 -68.803524 -6.679198 -14.988414 47.011066 -40.017887 1.840922 175.342226 -0.020900 -0.933100 2.564800 0.782327 -0.114558 1.643984 -3.331466 0.623602 -1.021000 2.091502 -0.650436 9.317374 0.321700 -0.119200 3.037500 31.985031 -46.244246 -26.274010 14.666222 -23.937141 -2.929390 0.287885 -0.280267 0.011619 -7.125000 0.000000 0.000000 -4.848327 34.968609 -1.343432 -27.589700 36.074087 -10.341736 1.228962 1.441643 2.420402 7.125000 0.000000 0.000000 
7.436317 10.124001 14.077308 2.518048 -5.077746 -30.599603 -4.334674 3.093083 -52.106801 6.769432 15.078213 46.807473 40.413751 5.685414 -179.408079 1.869900 8.589700 24.520100 8.367713 8.395463 -67.810383 -6.259705 -14.658712 45.466345 -40.078717 2.600556 175.546491 -0.035500 -1.216200 3.343800 0.676392 -0.064120 1.709782 -3.526009 0.646097 -1.018156 2.016868 -0.542613 9.298176 0.300000 -0.067200 3.033200 30.610210 -45.098556 -25.970155 14.186086 -23.166991 -2.740339 0.280591 -0.242866 -0.648886 -7.125000 0.000000 0.000000 -4.276732 34.314088 -2.241225 -26.495321 34.985922 -9.684708 1.298131 1.490822 2.622186 7.125000 0.000000 0.000000 
7.443827 10.082396 14.144112 2.971628 -5.618619 -30.740705 -3.802707 3.351983 -54.384695 7.556580 15.497638 49.318564 40.571792 7.045700 -179.487406 1.596400 7.969200 22.620500 9.060302 8.256565 -66.855377 -5.885455 -14.361668 44.085787 -40.144826 3.439946 175.443635 -0.045100 -1.371300 3.771200 0.585577 -0.025479 1.765816 -3.718475 0.663494 -1.028418 1.931832 -0.433718 9.256945 0.277600 -0.015700 3.027100 29.275485 -43.961682 -25.979999 13.713556 -22.410507 -2.565596 0.271995 -0.206297 -0.961608 -7.125000 0.000000 0.000000 -3.738298 33.650555 -3.247999 -25.436819 33.900845 -9.071007 1.362968 1.545089 2.586748 7.125000 0.000000 0.000000 
7.449757 10.028538 14.206272 3.317243 -6.199867 -30.789361 -3.191469 3.604843 -56.727360 8.406855 15.916154 52.008421 40.708494 8.244900 -179.653062 1.368900 7.404800 20.920200 9.880159 8.200459 -65.959107 -5.560031 -14.107804 42.889706 -40.212052 4.270489 175.065634 -0.049100 -1.429800 3.932200 0.516443 0.021004 1.807925 -3.927848 0.686643 -1.047844 1.838361 -0.331963 9.161043 0.252200 0.031100 3.004100 27.990972 -42.820883 -26.243002 13.262223 -21.687179 -2.408940 0.262574 -0.170822 -0.996626 -7.125000 0.000000 0.000000 -3.232812 32.976482 -4.363244 -24.416357 32.825420 -8.501488 1.425209 1.605023 2.287631 7.125000 0.000000 0.000000 
7.455093 9.962425 14.263787 3.576214 -6.835412 -30.738701 -2.511586 3.880088 -59.102423 9.328866 16.331604 54.902407 40.821101 9.268211 -179.878743 1.210600 6.979900 19.655800 10.791336 8.254388 -65.124176 -5.292301 -13.907892 41.911405 -40.272280 4.983874 174.535013 -0.052900 -1.483800 4.081000 0.462960 0.084566 1.836509 -4.160106 0.719808 -1.071779 1.723326 -0.241856 8.987524 0.216000 0.070600 2.955100 26.765092 -41.672339 -26.708184 12.844089 -21.014352 -2.273155 0.252733 -0.136471 -0.882521 -7.125000 0.000000 0.000000 -2.759833 32.288260 -5.596501 -23.439490 31.769830 -7.978796 1.484867 1.671796 1.736190 7.125000 0.000000 0.000000 
7.461616 9.884751 14.319918 3.919225 -7.412351 -30.655528 -1.985444 4.166480 -61.388683 10.341028 16.762675 58.072682 40.902667 10.055490 179.996638 1.204800 6.963800 19.608300 11.503075 8.338801 -64.317186 -5.091820 -13.762310 41.175730 -40.314366 5.466733 174.025312 -0.062400 -1.611400 4.432800 0.390996 0.140409 1.862696 -4.369627 0.748012 -1.090174 1.596178 -0.158839 8.743055 0.175800 0.105300 2.881000 25.577650 -40.509692 -27.286620 12.468460 -20.402940 -2.159194 0.242442 -0.102505 -0.799448 -7.125000 0.000000 0.000000 -2.324576 31.596101 -6.946318 -22.499633 30.733205 -7.497224 1.540797 1.745386 0.994837 7.125000 0.000000 0.000000 
7.469126 9.796107 14.374172 4.285890 -7.968135 -30.518750 -1.535168 4.515437 -63.572513 11.447600 17.186034 61.508873 40.962467 10.648020 -179.875007 1.397600 7.478800 21.141800 12.091702 8.485158 -63.552844 -4.964702 -13.684596 40.715955 -40.336921 5.715027 173.662522 -0.076100 -1.779200 4.895800 0.316944 0.191794 1.881656 -4.563310 0.773896 -1.110144 1.491850 -0.072282 8.463095 0.149400 0.141400 2.799200 24.419988 -39.315723 -27.896235 12.139202 -19.856124 -2.066165 0.231167 -0.068299 -0.919814 -7.125000 0.000000 0.000000 -1.939152 30.925725 -8.445480 -21.574553 29.699240 -7.043964 1.593676 1.825016 0.182782 7.125000 0.000000 0.000000 
7.477526 9.697284 14.427437 4.700056 -8.466936 -30.342750 -1.216877 4.928044 -65.621945 12.663266 17.593792 65.254665 41.015536 11.142815 -179.436934 1.669300 8.140300 23.141000 12.514126 8.659663 -62.831317 -4.914525 -13.680347 40.552628 -40.342809 5.765048 173.502830 -0.086300 -1.894400 5.213900 0.240165 0.228683 1.897720 -4.720195 0.791371 -1.130283 1.403432 0.031785 8.188772 0.135900 0.186400 2.730600 23.284654 -38.072510 -28.435299 11.861742 -19.379684 -1.993798 0.218088 -0.033598 -1.393748 -7.125000 0.000000 0.000000 -1.616148 30.290990 -10.149238 -20.644287 28.650066 -6.607454 1.644002 1.907387 -0.554704 7.125000 0.000000 0.000000 
